<?xml version="1.0" encoding="utf-8"?>
<!-- Generator: Adobe Illustrator 22.1.0, SVG Export Plug-In . SVG Version: 6.00 Build 0)  -->
<svg version="1.1" id="Layer_1" xmlns="http://www.w3.org/2000/svg" xmlns:xlink="http://www.w3.org/1999/xlink" x="0px" y="0px"
	 viewBox="0 0 47.5 47.5" style="enable-background:new 0 0 47.5 47.5;" xml:space="preserve">
<style type="text/css">
	.st0{fill:none;stroke:#F5A252;stroke-width:4.83;stroke-miterlimit:10;}
	.st1{fill:none;stroke:#579ACA;stroke-width:4.83;stroke-miterlimit:10;}
	.st2{fill:none;stroke:#E66581;stroke-width:4.83;stroke-miterlimit:10;}
</style>
<title>logo</title>
<path class="st0" d="M36.7,10.2c2.6,4.6,1.1,10.4-3.5,13s-10.4,1.1-13-3.5s-1.1-10.4,3.5-13c0,0,0,0,0,0C28.2,4.1,34,5.7,36.7,10.2z
	"/>
<path class="st1" d="M36.7,28.8c2.6,4.6,1.1,10.4-3.5,13c-4.6,2.6-10.4,1.1-13-3.5s-1.1-10.4,3.5-13c0,0,0,0,0,0
	C28.2,22.7,34,24.2,36.7,28.8z"/>
<path class="st2" d="M27.3,19.6c2.6,4.6,1.1,10.4-3.5,13s-10.4,1.1-13-3.5s-1.1-10.4,3.5-13c0,0,0,0,0,0
	C18.9,13.5,24.7,15,27.3,19.6z"/>
<path class="st1" d="M20.7,27.9c3.1-4.3,9.1-5.2,13.3-2.1c1.1,0.8,2,1.8,2.7,3"/>
<path class="st0" d="M20.1,19.7c-2.6-4.6-1.1-10.4,3.5-13s10.4-1.1,13,3.5"/>
</svg>
